<?xml version="1.0" encoding="UTF-8" standalone="no"?>
<!-- Created with Inkscape (http://www.inkscape.org/) -->

<svg
   xmlns:dc="http://purl.org/dc/elements/1.1/"
   xmlns:cc="http://creativecommons.org/ns#"
   xmlns:rdf="http://www.w3.org/1999/02/22-rdf-syntax-ns#"
   xmlns:svg="http://www.w3.org/2000/svg"
   xmlns="http://www.w3.org/2000/svg"
   xmlns:sodipodi="http://sodipodi.sourceforge.net/DTD/sodipodi-0.dtd"
   xmlns:inkscape="http://www.inkscape.org/namespaces/inkscape"
   width="62.059982mm"
   height="52.719681mm"
   viewBox="0 0 62.059982 52.71968"
   version="1.1"
   id="svg8"
   inkscape:version="0.92.5 (2060ec1f9f, 2020-04-08)"
   sodipodi:docname="exploration_gd.svg"
   inkscape:export-filename="/home/tylia/Scripts/img/exploration_gd.png"
   inkscape:export-xdpi="94.953293"
   inkscape:export-ydpi="94.953293">
  <defs
     id="defs2" />
  <sodipodi:namedview
     id="base"
     pagecolor="#ffffff"
     bordercolor="#666666"
     borderopacity="1.0"
     inkscape:pageopacity="0"
     inkscape:pageshadow="2"
     inkscape:zoom="1"
     inkscape:cx="145.25966"
     inkscape:cy="108.08082"
     inkscape:document-units="mm"
     inkscape:current-layer="layer1"
     showgrid="false"
     inkscape:window-width="1368"
     inkscape:window-height="836"
     inkscape:window-x="72"
     inkscape:window-y="27"
     inkscape:window-maximized="1"
     fit-margin-top="0"
     fit-margin-left="0"
     fit-margin-right="0"
     fit-margin-bottom="0"
     inkscape:pagecheckerboard="true" />
  <metadata
     id="metadata5">
    <rdf:RDF>
      <cc:Work
         rdf:about="">
        <dc:format>image/svg+xml</dc:format>
        <dc:type
           rdf:resource="http://purl.org/dc/dcmitype/StillImage" />
        <dc:title></dc:title>
      </cc:Work>
    </rdf:RDF>
  </metadata>
  <g
     inkscape:label="Calque 1"
     inkscape:groupmode="layer"
     id="layer1"
     transform="translate(26.159164,21.691899)">
    <path
       id="path3719"
       d="m 6.4678644,-21.540428 c -0.0208,0.767112 -0.01488,1.534711 -0.01304,2.302036 0.0408,0.648664 -0.119592,1.278366 -0.21452,1.913652 -0.03296,0.563904 -0.132792,1.111218 -0.269136,1.656799 -0.06792,0.500152 -0.210984,0.979219 -0.330144,1.467244 -0.157352,0.522904 -0.327696,1.030644 -0.409672,1.574056 -0.01792,0.635512 -0.21412,1.219629 -0.427696,1.806007 -0.216048,0.587096 -0.435568,1.1715421 -0.667264,1.7520525 -0.162552,0.576088 -0.371528,1.1299032 -0.614192,1.673872 -0.20652,0.376048 -0.242712,0.8087064 -0.368656,1.2121304 -0.14552,0.540744 -0.36136,1.0487 -0.623888,1.537968 -0.334568,0.46656 -0.572024,0.9950616 -0.8316432,1.5073936 -0.265576,0.500736 -0.494064,1.014648 -0.649008,1.5629784 -0.06928,0.548928 -0.29179203,1.04497036 -0.49063203,1.55156076 -0.194624,0.499392 -0.420864,0.9845168 -0.651816,1.46672884 -0.191552,0.426688 -0.393312,0.8461976 -0.582824,1.2745696 -0.190944,0.445464 -0.277464,0.9232912 -0.36296797,1.3988776 -0.121592,0.5214 -0.3254,1.0246632 -0.56804,1.4980368 -0.22264,0.415104 -0.510744,0.784312 -0.757144,1.1845152 -0.31336,0.356864 -0.439616,0.8142448 -0.629,1.2404168 -0.187448,0.400024 -0.454832,0.748744 -0.681504,1.1258824 -0.282264,0.452368 -0.600936,0.8676301 -0.9431296,1.2710921 -0.350768,0.389456 -0.550656,0.881109 -0.765568,1.356759 -0.18588,0.43624 -0.545952,0.718048 -0.8653768,1.040785 -0.333424,0.367616 -0.627984,0.76388 -0.8306608,1.22327 -0.138272,0.509792 -0.485096,0.88025 -0.8175976,1.263101 -0.411456,0.542512 -0.8458136,1.06601 -1.2516472,1.613014 -0.3486,0.446048 -0.716008,0.873092 -1.0330212,1.344519 -0.333632,0.354184 -0.63128,0.743888 -0.964308,1.099265 -0.224952,0.366032 -0.446008,0.735216 -0.679224,1.097774 -0.14628,0.420456 -0.502488,0.66644 -0.74308,1.012322 -0.342352,0.329312 -0.569136,0.741464 -0.825756,1.137098 -0.252888,0.462992 -0.657336,0.805862 -1.033813,1.15762 -0.457608,0.314864 -0.744912,0.796 -1.111893,1.20237 -0.437736,0.39312 -0.90959,0.742728 -1.385425,1.084648 -0.490328,0.459112 -1.005996,0.874433 -1.541811,1.274177 -1.5843,1.083321 -0.614696,0.427248 -4.579538,2.716528 -0.06112,0.03528 -0.260864,0.10204 -0.200288,0.0656 1.334468,-0.8015 5.278372,-3.296254 4.026056,-2.363568 -1.347175,1.003331 -2.854454,1.755264 -4.312151,2.576679 -1.355772,0.763996 2.670854,-1.602885 4.006281,-2.404321 -0.04936,0.04352 -0.09876,0.08699 -0.148144,0.130416 0,0 -4.513619,1.860037 -4.513619,1.860037 v 0 c 0.0516,-0.03568 0.103136,-0.07128 0.154696,-0.106976 1.426922,-0.880639 3.020881,-1.521173 4.280765,-2.641922 1.169033,-1.039938 -5.40402,3.062912 -4.003784,2.395533 1.508003,-0.718741 2.88356,-1.703851 4.328376,-2.550239 0.05608,-0.03288 0.22964,-0.12088 0.173976,-0.08725 -2.822562,1.704534 -5.327971,3.178736 -3.716384,2.229953 0.564392,-0.349976 1.106028,-0.738152 1.558336,-1.238469 0.434792,-0.389568 0.952721,-0.671488 1.379968,-1.070222 0.48996,-0.301648 0.676752,-0.846248 1.119884,-1.211346 0.395112,-0.285312 0.726232,-0.651296 1.082812,-0.98587 0.0364,-0.06968 0.07288,-0.139264 0.109312,-0.208888 0.04432,-0.05616 0.09716,-0.106088 0.132904,-0.16844 0.16532,-0.288248 0.275336,-0.621304 0.548488,-0.832896 0.302936,-0.308928 -0.01736,0.04768 0.238432,-0.345272 0.147024,-0.22592 0.449944,-0.289608 0.553072,-0.567184 0.170176,-0.426968 0.503952,-0.730208 0.641288,-1.171213 0.12504,-0.214944 0.288024,-0.330416 0.435864,-0.52408 0.167352,-0.219232 0.277672,-0.462904 0.540712,-0.588872 0.375568,-0.44256 -0.01,0.03896 0.329456,-0.47736 0.155632,-0.236656 0.350344,-0.423656 0.528008,-0.637168 0.0648,-0.07792 0.115512,-0.167336 0.173272,-0.251008 0.452384,-0.499144 0.824693,-1.080589 1.256164,-1.601658 0.271128,-0.386872 0.641792,-0.681456 0.869852,-1.101137 0.142936,-0.545224 0.420728,-0.978018 0.75104,-1.41629 0.289272,-0.342392 0.628704,-0.596712 0.9167588,-0.930612 0.297792,-0.45084 0.405432,-1.006038 0.726032,-1.447889 0.333192,-0.404248 0.711728,-0.757128 0.9567632,-1.233841 0.201568,-0.23812 0.3104,-0.528848 0.49984,-0.775032 0.03304,-0.04288 0.089016,-0.064 0.1188,-0.109376 0.03544,-0.054 0.048,-0.12088 0.072,-0.181312 0.273848,-0.4055119 0.338064,-0.8973831 0.619752,-1.3037023 0.211192,-0.249704 0.333808,-0.55212 0.53416,-0.8103504 0.0388,-0.04992 0.0986,-0.080424 0.13456,-0.132608 0.04208,-0.06104 0.06392,-0.134552 0.095912,-0.201832 0.28992,-0.40384 0.48804,-0.8801608 0.637272,-1.3544952 0.147928,-0.476632 0.136552,-1.0038376 0.337552,-1.4718376 0.16464,-0.448424 0.36736,-0.873156 0.559216,-1.3004272 0.231112,-0.476432 0.454592,-0.9459 0.68808,-1.4200072 0.157256,-0.507752 0.44784,-0.9674712 0.50624,-1.50177924 0.11996,-0.593776 0.335704,-1.144596 0.6034,-1.68225436 0.280432,-0.513152 0.503624,-1.0557312 0.8038352,-1.5554936 0.337264,-0.393096 0.545168,-0.8969408 0.671648,-1.40276 0.04216,-0.125184 0.113552,-0.2398 0.145376,-0.368248 0.07352,-0.296744 0.04856,-0.624576 0.20527997,-0.902908 0.253672,-0.530664 0.529792,-1.0483336 0.639248,-1.6368992 0.193552,-0.593512 0.469296,-1.1525624 0.673584,-1.7428216 0.176528,-0.568184 0.483168,-1.0953208 0.471336,-1.7116791 0.05336,-0.554048 0.12790403,-1.11124 0.38582403,-1.60941 0.087208,-0.502872 0.286008,-0.963362 0.318272,-1.474492 0.115608,-0.540592 0.323696,-1.054163 0.302976,-1.618959 0.07288,-0.624328 0.257232,-1.231889 0.258824,-1.860364 0.00196,-0.762752 0.00794,-1.525798 -0.01304,-2.288336 0,0 4.3204104,-2.277941 4.3204104,-2.277941 z"
       inkscape:connector-curvature="0"
       style="stroke-width:0.32888168" />
    <path
       id="path3721"
       d="m -22.236312,22.488327 c 0.748984,0.115376 1.479852,-0.211432 2.218307,-0.380704 0.63316,-0.126352 1.270395,-0.178672 1.907217,-0.194936 0.575136,-0.159592 1.10492,-0.5428 1.656183,-0.847537 0.535104,-0.494168 1.128894,-0.665904 1.688825,-1.049756 0.571104,-0.219536 1.128884,-0.513632 1.701246,-0.72884 0.580248,-0.07584 1.123909,-0.388648 1.689116,-0.595496 0.563064,-0.177152 1.133395,-0.234624 1.7040624,-0.253032 0.563632,-0.0065 1.127288,-0.0086 1.6909304,-0.0065 0.5822,0.0022 1.1644128,0.01296 1.7466136,0.0043 0.56504,-0.0022 1.1300832,0.0017 1.6951264,0.0043 0.551984,-0.0086 1.1040024,-0.0043 1.656,-0.0011 0.554984,-0.0022 1.1099576,-0.0043 1.664952,-0.0012 0.57493597,0.0065 1.14984717,-0.0022 1.72477677,-0.0017 0.58781603,-0.08328 1.15000883,0.237528 1.72357363,0.413264 0.577888,0.07696 1.129028,0.390392 1.697804,0.578872 0.554232,0.372504 1.1291496,0.607944 1.6960376,0.908984 0.643824,0.227496 1.261812,0.606632 1.90902,0.811278 0.559016,0.364184 1.1268672,0.60376 1.7186008,0.705224 0.606528,-0.04624 1.1775394,0.21808 1.7692214,0.394848 0.726552,0.194072 1.433979,0.582928 2.143718,0.917915 0.684112,0.175856 1.322935,0.64244 1.998338,0.883042 0.645032,0.325728 1.294208,0.584472 1.935606,0.92837 0.60748,0.199928 1.186045,0.584856 1.789725,0.815928 0.552,0.167176 1.114097,0.176936 1.672576,0.183008 0.559952,0.0017 1.119916,5.86e-4 1.679873,5.19e-4 0.552032,-0.0108 1.104123,-0.0065 1.656181,-0.0043 0.603152,0.06984 1.180753,-0.02456 1.770647,-0.216624 0.629872,-0.189728 1.260631,-0.53908 1.805037,-1.139273 0.608712,-0.612464 1.237235,-1.161456 1.845128,-1.777083 0.421904,-0.48312 0.932351,-0.503152 1.379751,-0.861914 0.214904,-0.172392 0.420256,-0.380472 0.63476,-0.554328 0.117392,-0.09782 0.2348,-0.195368 0.3522,-0.2932 -0.214048,0.301 0.978615,-0.820977 0.74416,-0.580064 -1.261789,1.29652 -2.531936,2.567289 -3.800522,3.842757 -0.103656,0.104264 0.202384,-0.22332 0.305616,-0.328904 1.474589,-1.507948 2.951833,-3.007716 4.427751,-4.51156 0.54812,-0.66212 1.207662,-0.750528 1.755659,-1.396054 0.267832,-0.251384 0.532424,-0.426736 0.783312,-0.729512 0,0 -3.762164,5.399642 -3.762164,5.399642 v 0 c -0.266712,0.222248 -0.531104,0.452096 -0.788024,0.708752 -0.588288,0.444632 -1.211081,0.744 -1.749444,1.38623 1.276819,-1.314561 2.551959,-2.634291 3.830466,-3.943695 0.104832,-0.10728 -0.204504,0.230112 -0.309344,0.337488 -1.484975,1.520773 -2.966515,3.052373 -4.459963,4.546785 -0.350832,0.351059 -0.757616,0.5267 -1.107847,0.883426 -0.656568,0.526264 -1.367265,0.801111 -1.989597,1.463381 -0.62244,0.581908 -1.232896,1.203025 -1.859538,1.770774 -0.6058,0.456735 -1.243686,0.76562 -1.896552,0.923362 -0.605696,0.155041 -1.212996,0.115102 -1.823725,0.114006 -0.551392,0.0022 -1.102806,0.0086 -1.654199,0.0043 -0.564104,0.0044 -1.128372,0.01524 -1.692361,-0.01082 -0.581032,-0.0399 -1.166813,-0.07459 -1.732697,-0.336729 -0.598633,-0.290388 -1.194092,-0.59856 -1.796932,-0.860717 C 12.47539,29.478114 11.828284,29.228922 11.188573,28.933761 10.524697,28.627259 9.874438,28.235193 9.199122,28.005777 8.4960348,27.674121 7.7887316,27.34973 7.067794,27.166479 6.481482,26.985202 5.896314,26.885412 5.302694,26.810538 4.7112804,26.644222 4.1494876,26.313629 3.5717204,26.045551 2.9220748,25.78582 2.2820332,25.453862 1.6352196,25.173684 1.0781868,24.879585 0.51329637,24.63267 -0.04317883,24.33649 -0.60568603,24.117222 -1.1658756,23.895743 -1.7381988,23.771624 c -0.5537744,-0.195372 -1.1035896,-0.364095 -1.6717664,-0.284926 -0.573976,3.89e-4 -1.1479256,-0.0086 -1.7219,-0.0017 -0.554408,0.0022 -1.1087944,0.0017 -1.6631904,-0.0011 -0.551464,0.0022 -1.1029552,0.0087 -1.6544152,-0.0011 -0.56664,0.0017 -1.1332888,0.0065 -1.6999312,0.0022 -0.582952,-0.0086 -1.165942,-0.0011 -1.748912,-0.0022 -0.559616,-2.3e-5 -1.119474,-0.0108 -1.67876,0.0308 -0.553224,0.05296 -1.107198,0.142896 -1.646754,0.377384 -0.557344,0.244552 -1.12164,0.387904 -1.683112,0.597448 -0.559392,0.259664 -1.12883,0.456448 -1.67285,0.808889 -0.57012,0.329616 -1.145546,0.620296 -1.69912,1.034473 -0.562288,0.339312 -1.145465,0.6016 -1.741155,0.647984 -0.62168,0.03624 -1.243668,0.0911 -1.859894,0.250624 -0.7572,0.188864 -1.511733,0.371552 -2.279205,0.317472 0,0 3.922852,-5.057641 3.922852,-5.057641 z"
       inkscape:connector-curvature="0"
       style="stroke-width:0.43068233" />
    <path
       id="path3723"
       d="m -9.7200228,0.17190726 c 0.753368,-0.27964 1.5045312,-0.5434 2.2496672,-0.8665832 0.629824,-0.137184 1.2099328,-0.53718396 1.8303056,-0.72967996 0.579104,-0.141592 1.1671928,-0.13792 1.7519136,-0.156248 0.556392,-0.0055 1.1128152,0.00183 1.669212,0.0055 0.54312,-0.0055 1.086252,-2.392e-4 1.62937357,0.00183 0.546184,-0.00183 1.0923608,-0.00367 1.63855603,-9.704e-4 0.594608,-0.095496 1.1495296,0.09944 1.7248688,0.280656 0.544208,0.2388 1.1444224,0.34625596 1.6591544,0.71634396 0.442608,0.288384 0.9082008,0.412656 1.3621088,0.654352 0.452008,0.096888 0.8499976,0.401688 1.2819,0.594432 0.50808,0.2036 1.0393896,0.099552 1.5435328,0.305656 0.56632,0.25319204 1.1553976,0.31378404 1.741366,0.36159204 0.606272,0.03544 1.213221,0.03952 1.819854,0.03216 0.565312,0.072 1.15927,0.23068 1.705331,0.488536 0.53204,0.277024 1.079627,0.402992 1.637954,0.458816 0.54528,0.04112 1.091429,0.03336 1.637186,0.03376 0.581872,-0.097592 1.123486,0.099208 1.686176,0.277072 0.559488,0.157 1.129452,0.184768 1.696769,0.202384 0.08719,0.00147 0.174368,0.00367 0.26156,0.0055 0,0 -3.862026,4.2574304 -3.862026,4.2574304 v 0 c -0.08776,-0.00556 -0.17552,-0.00928 -0.263288,-0.01472 C 16.09702,7.0314657 15.510993,6.9760793 14.938024,6.7805185 14.397312,6.6128905 13.859581,6.5849401 13.307846,6.6218769 12.754126,6.6200425 12.199787,6.6072049 11.647883,6.5329265 11.075609,6.4315065 10.521898,6.2251801 9.9703108,5.9728577 9.4292892,5.8043121 8.8840772,5.6080929 8.3285588,5.6389761 7.7172436,5.6279729 7.1051748,5.6316393 6.4951028,5.5610305 5.8944724,5.4816185 5.2993276,5.3575113 4.7129036,5.1390433 4.1806684,5.0579809 3.638766,5.0288201 3.1278412,4.7622289 2.7058516,4.5293281 2.2767836,4.3546385 1.8468708,4.1576665 1.3880276,3.9259569 0.90484997,3.8115337 0.46962917,3.4732137 -0.05696523,3.2239169 -0.59448683,3.0159593 -1.1359084,2.8578673 -1.6887124,2.6871209 -2.2391172,2.6571385 -2.803162,2.6946409 c -0.545664,0.00183 -1.0913016,0.00147 -1.6369528,-0.00145 -0.542768,0.00145 -1.0855584,0.0055 -1.6283016,-0.00367 -0.555736,-2.56e-4 -1.1115352,-0.00183 -1.6671936,0.01464 -0.567016,0.0196 -1.1384752,0.06008 -1.6896416,0.282128 -0.5995204,0.2612 -1.1979544,0.51892 -1.8059194,0.732256 -0.750336,0.314728 -1.5219,0.511408 -2.255272,0.9181024 0,0 3.7664202,-4.46243604 3.7664202,-4.46243604 z"
       inkscape:connector-curvature="0"
       style="stroke-width:0.39293769" />
    <path
       id="path3727"
       d="m -2.641002,-14.256474 c 0.762096,0.08502 1.5073736,0.04232 2.25641837,-0.222464 0.626096,-0.159096 1.233432,-0.3082 1.83941523,-0.639224 0.533616,-0.378848 1.1452792,-0.105424 1.6611624,-0.536168 0.485384,-0.2976 0.9818104,-0.451408 1.4742088,-0.7064 0.57068,-0.149208 1.1058296,-0.52452 1.664816,-0.765056 0.549568,-0.228792 1.1084752,-0.271784 1.6681992,-0.290656 0.546024,-0.01712 1.0920624,-0.01112 1.63812,-0.0057 0.557816,0.0062 1.115617,3.5e-4 1.673436,0.0031 0.580344,0.0069 1.160666,0.0026 1.740997,-6.01e-4 0.5676,-0.0019 1.135199,0.0088 1.702786,6.28e-4 0.561416,-0.0026 1.122832,0.0019 1.684247,0.0038 0.551984,-0.0093 1.104003,-0.0031 1.655996,-0.0013 0.568624,0.0031 1.137211,-0.0045 1.705838,-0.0026 0.502368,-0.02416 0.983093,-0.391352 1.484178,-0.530632 0.476728,-0.111568 0.956612,-0.107224 1.435884,-0.10812 0.520152,-0.117416 1.029992,-0.395384 1.559377,-0.504992 0.556448,-0.353848 1.123999,-0.587832 1.706555,-0.687504 0.385904,-0.122368 0.789784,0.03432 1.174759,-0.07408 0.171424,-0.04832 0.334064,-0.17832 0.502216,-0.259024 0.563584,-0.234032 1.141189,-0.30676 1.715781,-0.35428 0.08943,-0.0038 0.180112,0.01784 0.268296,-0.01136 0.151816,-0.05024 0.289848,-0.204592 0.438824,-0.28032 0.255968,-0.130168 0.515952,-0.186968 0.778216,-0.242832 0.5008,0.04512 0.923001,-0.424704 1.407556,-0.583048 0.358968,-0.160536 0.740248,-0.03072 1.0998,-0.15176 0.168696,-0.0568 0.328232,-0.189808 0.493968,-0.273224 0.309984,-0.164848 0.153944,-0.09447 0.46808,-0.211608 0,0 -3.860233,5.690861 -3.860233,5.690861 v 0 c -0.303352,0.145312 -0.150112,0.07512 -0.459752,0.210304 -0.52932,0.204904 -1.075723,0.156576 -1.600145,0.428512 -0.4708,0.2576 -0.930682,0.475048 -1.423149,0.5194 -0.503696,0.182504 -0.994178,0.501408 -1.512862,0.470336 -0.562448,0.08008 -1.122371,0.20324 -1.671448,0.463736 -0.562128,0.187768 -1.135238,0.100472 -1.69963,0.269688 -0.572976,0.180296 -1.127757,0.512488 -1.700645,0.69148 -0.531624,0.1698 -1.054651,0.48008 -1.598681,0.420744 -0.4672,0.02456 -0.936239,0.06208 -1.396017,0.238496 -0.504512,0.206376 -1.005474,0.46524 -1.526586,0.387528 -0.567528,0.0019 -1.135012,-0.0057 -1.702534,-0.0026 -0.551488,0.0026 -1.102997,0.0083 -1.654477,-0.0013 -0.56324,0.0019 -1.12648,0.0066 -1.689717,0.0038 -0.567912,-0.0083 -1.135846,0.0026 -1.7037692,6.25e-4 -0.579952,-0.0031 -1.1598864,-0.0076 -1.7398424,-0.0019 -0.557408,0.0013 -1.1147784,-0.0076 -1.672188,-0.0057 -0.542456,0.0019 -1.0851968,-0.0026 -1.6273808,0.03432 -0.541224,0.05744 -1.0811456,0.168888 -1.6061008,0.444104 -0.549688,0.294504 -1.106072,0.5118 -1.65984003,0.77492 -0.495272,0.251216 -1.0019168,0.409992 -1.4909176,0.7110397 -0.55643197,0.097776 -1.11199197,0.219288 -1.64977357,0.530576 -0.609968,0.274008 -1.2407416,0.310656 -1.8553016,0.545792 -0.771184,0.185512 -1.5456616,0.089976 -2.3209856,0.138264 0,0 3.9228512,-5.5284257 3.9228512,-5.5284257 z"
       inkscape:connector-curvature="0"
       style="stroke-width:0.45028025" />
  </g>
</svg>
