<?xml version="1.0" encoding="UTF-8" standalone="no"?>
<!-- Created with Inkscape (http://www.inkscape.org/) -->

<svg
   xmlns:dc="http://purl.org/dc/elements/1.1/"
   xmlns:cc="http://creativecommons.org/ns#"
   xmlns:rdf="http://www.w3.org/1999/02/22-rdf-syntax-ns#"
   xmlns:svg="http://www.w3.org/2000/svg"
   xmlns="http://www.w3.org/2000/svg"
   xmlns:sodipodi="http://sodipodi.sourceforge.net/DTD/sodipodi-0.dtd"
   xmlns:inkscape="http://www.inkscape.org/namespaces/inkscape"
   width="7.7574978mm"
   height="6.5899639mm"
   viewBox="0 0 7.7574977 6.5899638"
   version="1.1"
   id="svg8"
   inkscape:version="0.92.5 (2060ec1f9f, 2020-04-08)"
   sodipodi:docname="exploration.svg"
   inkscape:export-filename="/home/tylia/Scripts/img/exploration.png"
   inkscape:export-xdpi="94.953293"
   inkscape:export-ydpi="94.953293">
  <defs
     id="defs2" />
  <sodipodi:namedview
     id="base"
     pagecolor="#ffffff"
     bordercolor="#666666"
     borderopacity="1.0"
     inkscape:pageopacity="0"
     inkscape:pageshadow="2"
     inkscape:zoom="5.6"
     inkscape:cx="51.558855"
     inkscape:cy="-18.378779"
     inkscape:document-units="mm"
     inkscape:current-layer="layer1"
     showgrid="false"
     inkscape:window-width="1368"
     inkscape:window-height="836"
     inkscape:window-x="72"
     inkscape:window-y="27"
     inkscape:window-maximized="1"
     fit-margin-top="0"
     fit-margin-left="0"
     fit-margin-right="0"
     fit-margin-bottom="0"
     inkscape:pagecheckerboard="true" />
  <metadata
     id="metadata5">
    <rdf:RDF>
      <cc:Work
         rdf:about="">
        <dc:format>image/svg+xml</dc:format>
        <dc:type
           rdf:resource="http://purl.org/dc/dcmitype/StillImage" />
        <dc:title></dc:title>
      </cc:Work>
    </rdf:RDF>
  </metadata>
  <g
     inkscape:label="Calque 1"
     inkscape:groupmode="layer"
     id="layer1"
     transform="translate(-0.99207788,-1.3729984)">
    <path
       id="path3719"
       d="m 5.0704564,1.3919293 c -0.0026,0.095889 -0.00186,0.1918389 -0.00163,0.2877545 0.0051,0.081083 -0.014949,0.1597957 -0.026815,0.2392065 -0.00412,0.070488 -0.016599,0.1389023 -0.033642,0.2070999 -0.00849,0.062519 -0.026373,0.1224023 -0.041268,0.1834055 -0.019669,0.065363 -0.040962,0.1288305 -0.051209,0.196757 -0.00224,0.079439 -0.026765,0.1524536 -0.053462,0.2257508 -0.027006,0.073387 -0.054446,0.1464428 -0.083408,0.2190066 -0.020319,0.072011 -0.046441,0.1412379 -0.076774,0.209234 -0.025815,0.047006 -0.030339,0.1010883 -0.046082,0.1515163 -0.01819,0.067593 -0.04517,0.1310875 -0.077986,0.192246 C 4.5363594,3.5622264 4.5066774,3.6282891 4.474225,3.6923306 4.441028,3.7549226 4.412467,3.8191616 4.393099,3.8877029 4.384439,3.9563189 4.356625,4.0183242 4.33177,4.081648 4.307442,4.144072 4.279162,4.2047126 4.250293,4.2649891 4.226349,4.3183251 4.201129,4.3707638 4.17744,4.4243103 4.153572,4.4799933 4.142757,4.5397217 4.132069,4.59917 4.11687,4.664345 4.091394,4.7272529 4.061064,4.7864246 4.033234,4.8383126 3.997221,4.8844636 3.966421,4.934489 3.927251,4.979097 3.911469,5.0362696 3.887796,5.0895411 3.864365,5.1395441 3.830942,5.1831341 3.802608,5.2302764 3.767325,5.2868224 3.727491,5.3387302 3.6847168,5.3891629 c -0.043846,0.048682 -0.068832,0.1101387 -0.095696,0.1695949 -0.023235,0.05453 -0.068244,0.089756 -0.1081721,0.1300981 -0.041678,0.045952 -0.078498,0.095485 -0.1038326,0.1529088 -0.017284,0.063724 -0.060637,0.1100312 -0.1021997,0.1578876 -0.051432,0.067814 -0.1057267,0.1332513 -0.1564559,0.2016267 -0.043575,0.055756 -0.089501,0.1091366 -0.1291276,0.1680649 -0.041704,0.044273 -0.07891,0.092986 -0.1205386,0.1374082 -0.028119,0.045754 -0.055751,0.091902 -0.084903,0.1372217 -0.018285,0.052557 -0.062811,0.083305 -0.092885,0.1265402 C 2.6481123,6.811678 2.6197643,6.863197 2.5876868,6.9126513 2.5560758,6.9705253 2.5055198,7.013384 2.4584602,7.0573538 2.4012592,7.0967118 2.3653462,7.1568538 2.3194736,7.20765 2.2647566,7.25679 2.2057749,7.300491 2.1462955,7.343231 2.0850045,7.40062 2.020546,7.4525352 1.9535691,7.5025032 c -0.1980375,0.1354151 -0.076837,0.053406 -0.5724422,0.339566 -0.00764,0.00441 -0.032608,0.012755 -0.025036,0.0082 C 1.5228993,7.7500817 2.0158874,7.4382374 1.8593478,7.5548232 1.690951,7.6802396 1.5025411,7.7742312 1.320329,7.876908 1.1508575,7.9724075 1.6541857,7.6765474 1.8211141,7.5763679 c -0.00617,0.00544 -0.012345,0.010874 -0.018518,0.016302 0,0 -0.5642024,0.2325046 -0.5642024,0.2325046 v 0 c 0.00645,-0.00446 0.012892,-0.00891 0.019337,-0.013372 C 1.436096,7.7017227 1.6353408,7.6216559 1.7928263,7.4815623 1.9389555,7.3515701 1.1173238,7.8644263 1.2923533,7.7810039 1.4808537,7.6911613 1.6527984,7.5680225 1.8334004,7.462224 1.8404104,7.458114 1.8621054,7.447114 1.8551474,7.451318 1.5023271,7.6643848 1.189151,7.84866 1.3905994,7.7300622 c 0.070549,-0.043747 0.1382534,-0.092269 0.194792,-0.1548087 0.054349,-0.048696 0.1190901,-0.083936 0.1724959,-0.1337777 0.061245,-0.037706 0.084594,-0.105781 0.1399855,-0.1514183 0.049389,-0.035664 0.090779,-0.081412 0.1353516,-0.1232337 0.00455,-0.00871 0.00911,-0.017408 0.013664,-0.026111 0.00554,-0.00702 0.012145,-0.013261 0.016613,-0.021055 0.020665,-0.036031 0.034417,-0.077663 0.068561,-0.104112 0.037867,-0.038616 -0.00217,0.00596 0.029804,-0.043159 0.018378,-0.02824 0.056243,-0.036201 0.069134,-0.070898 0.021272,-0.053371 0.062994,-0.091276 0.080161,-0.1464016 0.01563,-0.026868 0.036003,-0.041302 0.054483,-0.06551 0.020919,-0.027404 0.034709,-0.057863 0.067589,-0.073609 0.046946,-0.05532 -0.00125,0.00487 0.041182,-0.05967 0.019454,-0.029582 0.043793,-0.052957 0.066001,-0.079646 0.0081,-0.00974 0.014439,-0.020917 0.021659,-0.031376 0.056548,-0.062393 0.1030866,-0.1350737 0.1570205,-0.2002073 0.033891,-0.048359 0.080224,-0.085182 0.1087315,-0.1376421 0.017867,-0.068153 0.052591,-0.1222522 0.09388,-0.1770362 0.036159,-0.042799 0.078588,-0.074589 0.1145948,-0.1163266 0.037224,-0.056355 0.050679,-0.1257547 0.090754,-0.1809861 0.041649,-0.050531 0.088966,-0.094641 0.1195954,-0.1542301 0.025196,-0.029765 0.0388,-0.066106 0.06248,-0.096879 0.00413,-0.00536 0.011127,-0.008 0.01485,-0.013672 0.00443,-0.00675 0.006,-0.01511 0.009,-0.022664 0.034231,-0.050689 0.042258,-0.1121729 0.077469,-0.1629628 0.026399,-0.031213 0.041726,-0.069015 0.06677,-0.1012938 0.00485,-0.00624 0.012325,-0.010053 0.01682,-0.016576 0.00526,-0.00763 0.00799,-0.016819 0.011989,-0.025229 0.03624,-0.05048 0.061005,-0.1100201 0.079659,-0.1693119 0.018491,-0.059579 0.017069,-0.1254797 0.042194,-0.1839797 0.02058,-0.056053 0.04592,-0.1091445 0.069902,-0.1625534 0.028889,-0.059554 0.056824,-0.1182375 0.08601,-0.1775009 0.019657,-0.063469 0.05598,-0.1209339 0.06328,-0.1877224 0.014995,-0.074222 0.041963,-0.1430745 0.075425,-0.2102818 0.035054,-0.064144 0.062953,-0.1319664 0.1004794,-0.1944367 0.042158,-0.049137 0.068146,-0.1121176 0.083956,-0.175345 0.00527,-0.015648 0.014194,-0.029975 0.018172,-0.046031 0.00919,-0.037093 0.00607,-0.078072 0.02566,-0.1128635 C 4.182476,3.3532119 4.216991,3.2885032 4.230673,3.2149325 4.254867,3.1407435 4.289335,3.0708622 4.314871,2.9970798 4.336937,2.9260568 4.375267,2.8601647 4.373788,2.7831199 4.380458,2.7138639 4.389776,2.6442149 4.422016,2.5819437 4.432917,2.5190847 4.457767,2.4615234 4.4618,2.3976322 4.476251,2.3300582 4.502262,2.2658618 4.499672,2.1952623 4.508782,2.1172213 4.531826,2.0412762 4.532025,1.9627168 c 2.444e-4,-0.095344 9.928e-4,-0.1907247 -0.00163,-0.286042 0,0 0.5400513,-0.2847426 0.5400513,-0.2847426 z"
       inkscape:connector-curvature="0"
       style="stroke-width:0.04111021" />
    <path
       id="path3721"
       d="m 1.4824343,6.8955237 c 0.093623,0.014422 0.1849816,-0.026429 0.2772884,-0.047588 0.079145,-0.015794 0.1587994,-0.022334 0.2384022,-0.024367 0.071892,-0.019949 0.1381149,-0.06785 0.2070228,-0.1059422 C 2.2720357,6.6558555 2.3462595,6.6343885 2.4162508,6.586407 2.4876388,6.558965 2.5573614,6.522203 2.6289066,6.495302 2.7014376,6.485822 2.7693952,6.446721 2.8400461,6.420865 2.9104291,6.398721 2.9817205,6.391537 3.0530539,6.389236 c 0.070454,-8.131e-4 0.140911,-0.00108 0.2113663,-8.131e-4 0.072775,2.71e-4 0.1455516,0.00162 0.2183267,5.421e-4 0.07063,-2.711e-4 0.1412604,2.142e-4 0.2118908,5.421e-4 0.068998,-0.00108 0.1380003,-5.421e-4 0.207,-1.409e-4 0.069373,-2.71e-4 0.1387447,-5.421e-4 0.208119,-1.438e-4 0.071867,8.132e-4 0.1437309,-2.709e-4 0.2155971,-2.167e-4 0.073477,-0.01041 0.1437511,0.029691 0.2154467,0.051658 0.072236,0.00962 0.1411285,0.048799 0.2122255,0.072359 0.069279,0.046563 0.1411437,0.075993 0.2120047,0.113623 0.080478,0.028437 0.1577265,0.075829 0.2386275,0.1014097 0.069877,0.045523 0.1408584,0.07547 0.2148251,0.088153 0.075816,-0.00578 0.1471924,0.02726 0.2211527,0.049356 0.090819,0.024259 0.1792474,0.072866 0.2679647,0.1147394 0.085514,0.021982 0.1653669,0.080305 0.2497923,0.1103803 0.080629,0.040716 0.161776,0.073059 0.2419507,0.1160462 0.075935,0.024991 0.1482556,0.073107 0.2237157,0.101991 0.069,0.020897 0.1392621,0.022117 0.209072,0.022876 0.069994,2.167e-4 0.1399894,7.32e-5 0.2099841,6.49e-5 0.069004,-0.00135 0.1380153,-8.132e-4 0.2070226,-5.42e-4 0.075394,0.00873 0.1475941,-0.00307 0.2213309,-0.027078 0.078734,-0.023716 0.1575789,-0.067385 0.2256296,-0.1424091 0.076089,-0.076558 0.1546544,-0.145182 0.230641,-0.2221354 0.052738,-0.06039 0.1165439,-0.062894 0.1724689,-0.1077393 0.026863,-0.021549 0.052532,-0.047559 0.079345,-0.069291 0.014674,-0.012227 0.02935,-0.024421 0.044025,-0.03665 -0.026756,0.037625 0.1223269,-0.1026221 0.09302,-0.072508 -0.1577237,0.162065 -0.316492,0.3209111 -0.4750653,0.4803447 -0.012957,0.013033 0.025298,-0.027915 0.038202,-0.041113 C 8.0630588,6.9040476 8.2477143,6.7165766 8.4322041,6.528596 8.5007191,6.445831 8.5831618,6.43478 8.6516615,6.3540893 c 0.033479,-0.031423 0.066553,-0.053342 0.097914,-0.091189 0,0 -0.4702705,0.6749552 -0.4702705,0.6749552 v 0 c -0.033339,0.027781 -0.066388,0.056512 -0.098503,0.088594 -0.073536,0.055579 -0.1513852,0.093 -0.2186805,0.1732788 0.1596024,-0.1643201 0.3189948,-0.3292864 0.4788082,-0.4929619 0.013104,-0.01341 -0.025563,0.028764 -0.038668,0.042186 C 8.2166399,6.939049 8.0314474,7.130499 7.8447663,7.3173006 7.8009123,7.3611829 7.7500643,7.383138 7.7062855,7.4277288 7.6242145,7.4935118 7.5353773,7.5278677 7.4575859,7.6106514 7.3797809,7.6833899 7.3034739,7.7610296 7.2251436,7.8319982 7.1494186,7.88909 7.0696828,7.9277007 6.9880746,7.9474184 6.9123626,7.9667985 6.8364501,7.9618062 6.760109,7.9616692 6.691185,7.9619401 6.6222582,7.9627491 6.5533341,7.9622113 6.4828211,7.9627597 6.4122876,7.9641165 6.341789,7.9608592 6.26916,7.9558721 6.1959373,7.9515348 6.1252018,7.918768 6.0503727,7.8824695 5.9759404,7.8439481 5.9005853,7.8111784 5.8213971,7.7692471 5.7405088,7.7380981 5.660545,7.7012029 5.5775605,7.6628902 5.4962781,7.6138819 5.4118636,7.5852049 5.3239777,7.5437479 5.2355648,7.503199 5.1454476,7.4802927 5.0721586,7.457633 4.9990126,7.4451593 4.9248101,7.4358 4.8508834,7.4150106 4.7806593,7.3736864 4.7084384,7.3401767 4.6272327,7.3077103 4.5472275,7.2662155 4.4663758,7.2311933 4.3967467,7.1944309 4.3261354,7.1635666 4.256576,7.1265441 4.1862626,7.0991356 4.1162389,7.0714507 4.0446985,7.0559358 3.9754767,7.0315143 3.9067498,7.0104239 3.8357277,7.02032 3.7639807,7.0203687 3.692237,7.0192401 3.6204902,7.0201031 3.5511892,7.0203742 3.4818909,7.02032 3.4125914,7.0199594 c -0.068933,2.711e-4 -0.1378694,0.00109 -0.2068019,-1.435e-4 -0.07083,2.167e-4 -0.1416611,8.13e-4 -0.2124914,2.709e-4 -0.072869,-0.00108 -0.1457427,-1.435e-4 -0.218614,-2.709e-4 -0.069952,-2.8e-6 -0.1399342,-0.00135 -0.209845,0.00385 -0.069153,0.00662 -0.1383997,0.017862 -0.2058442,0.047173 -0.069668,0.030569 -0.140205,0.048488 -0.210389,0.074681 -0.069924,0.032458 -0.1411038,0.057056 -0.2091063,0.1011112 -0.071265,0.041202 -0.1431932,0.077537 -0.21239,0.1293091 -0.070286,0.042414 -0.1431831,0.0752 -0.2176444,0.080998 -0.07771,0.00453 -0.1554585,0.011387 -0.2324867,0.031328 -0.09465,0.023608 -0.1889667,0.046444 -0.28490062,0.039684 0,0 0.49035642,-0.6322052 0.49035642,-0.6322052 z"
       inkscape:connector-curvature="0"
       style="stroke-width:0.05383529" />
    <path
       id="path3723"
       d="m 3.0469705,4.1059712 c 0.094171,-0.034955 0.1880664,-0.067925 0.2812084,-0.1083229 0.078728,-0.017148 0.1512416,-0.067148 0.2287882,-0.09121 0.072388,-0.017699 0.1458991,-0.01724 0.2189892,-0.019531 0.069549,-6.879e-4 0.1391019,2.292e-4 0.2086515,6.878e-4 0.06789,-6.878e-4 0.1357815,-2.99e-5 0.2036717,2.291e-4 0.068273,-2.291e-4 0.1365451,-4.585e-4 0.2048195,-1.213e-4 0.074326,-0.011937 0.1436912,0.01243 0.2156086,0.035082 0.068026,0.02985 0.1430528,0.043282 0.2073943,0.089543 0.055326,0.036048 0.1135251,0.051582 0.1702636,0.081794 0.056501,0.012111 0.1062497,0.050211 0.1602375,0.074304 0.06351,0.02545 0.1299237,0.012444 0.1929416,0.038207 0.07079,0.031649 0.1444247,0.039223 0.2176707,0.045199 0.075784,0.00443 0.1516527,0.00494 0.2274818,0.00402 0.070664,0.009 0.1449087,0.028835 0.2131664,0.061067 0.066505,0.034628 0.1349533,0.050374 0.2047442,0.057352 0.06816,0.00514 0.1364287,0.00417 0.2046483,0.00422 0.072734,-0.012199 0.1404357,0.012401 0.210772,0.034634 0.069936,0.019625 0.1411815,0.023096 0.2120961,0.025298 0.010899,1.834e-4 0.021796,4.585e-4 0.032695,6.877e-4 0,0 -0.4827532,0.5321788 -0.4827532,0.5321788 v 0 c -0.01097,-6.953e-4 -0.02194,-0.00116 -0.032911,-0.00184 C 6.2741009,4.963416 6.2008475,4.9564927 6.1292264,4.9320476 6.0616374,4.9110941 5.994421,4.9076003 5.9254541,4.9122174 5.8562391,4.9119881 5.7869467,4.9103834 5.7179587,4.9010986 5.6464245,4.8884211 5.5772106,4.8626303 5.5082622,4.83109 5.4406345,4.8100218 5.372483,4.7854944 5.3030432,4.7893548 5.2266288,4.7879794 5.1501202,4.7884377 5.0738612,4.7796116 4.9987824,4.7696851 4.9243893,4.7541717 4.8510863,4.7268632 4.7845569,4.7167304 4.7168191,4.7130853 4.6529535,4.6797614 4.6002048,4.6506488 4.5465713,4.6288126 4.4928322,4.6041911 4.4354768,4.5752274 4.3750796,4.5609245 4.320677,4.5186345 4.2548527,4.4874724 4.1876625,4.4614777 4.1199848,4.4417162 4.0508843,4.4203729 3.9820837,4.4166251 3.9115781,4.4213129 3.8433701,4.4215421 3.7751654,4.4214963 3.706959,4.4211318 3.639113,4.4213129 3.5712642,4.4218195 3.5034213,4.4206732 c -0.069467,-3.2e-5 -0.1389419,-2.292e-4 -0.2083992,0.00183 -0.070877,0.00245 -0.1423094,0.00751 -0.2112052,0.035266 -0.07494,0.03265 -0.1497443,0.064865 -0.2257399,0.091532 -0.093792,0.039341 -0.1902375,0.063926 -0.281909,0.1147628 0,0 0.4708025,-0.5578045 0.4708025,-0.5578045 z"
       inkscape:connector-curvature="0"
       style="stroke-width:0.04911721" />
    <path
       id="path3727"
       d="m 3.9318481,2.3024236 c 0.095262,0.010628 0.1884217,0.00529 0.2820523,-0.027808 0.078262,-0.019887 0.154179,-0.038525 0.2299269,-0.079903 0.066702,-0.047356 0.1431599,-0.013178 0.2076453,-0.067021 0.060673,-0.0372 0.1227263,-0.056426 0.1842761,-0.0883 0.071335,-0.018651 0.1382287,-0.065565 0.208102,-0.095632 0.068696,-0.028599 0.1385594,-0.033973 0.2085249,-0.036332 0.068253,-0.00214 0.1365078,-0.00139 0.204765,-7.111e-4 0.069727,7.704e-4 0.1394521,4.38e-5 0.2091795,3.852e-4 0.072543,8.592e-4 0.1450833,3.259e-4 0.2176246,-7.52e-5 0.07095,-2.353e-4 0.1418999,0.0011 0.2128483,7.85e-5 0.070177,-3.259e-4 0.140354,2.353e-4 0.2105308,4.739e-4 0.068998,-0.00116 0.1380004,-3.85e-4 0.2069996,-1.567e-4 0.071078,3.852e-4 0.1421513,-5.629e-4 0.2132297,-3.258e-4 0.062796,-0.00302 0.1228866,-0.048919 0.1855223,-0.066329 0.059591,-0.013946 0.1195764,-0.013403 0.1794855,-0.013515 0.065019,-0.014677 0.1287489,-0.049423 0.1949221,-0.063124 0.069556,-0.044231 0.1404999,-0.073479 0.2133194,-0.085938 0.048238,-0.015296 0.098723,0.00429 0.1468448,-0.00926 0.021428,-0.00604 0.041758,-0.02229 0.062777,-0.032378 0.070448,-0.029254 0.1426487,-0.038345 0.2144727,-0.044285 0.011179,-4.74e-4 0.022514,0.00223 0.033537,-0.00142 0.018977,-0.00628 0.036231,-0.025574 0.054853,-0.03504 0.031996,-0.016271 0.064494,-0.023371 0.097277,-0.030354 0.0626,0.00564 0.1153751,-0.053088 0.1759444,-0.072881 0.044871,-0.020067 0.092531,-0.00384 0.1374751,-0.01897 0.021087,-0.0071 0.041029,-0.023726 0.061746,-0.034153 0.038748,-0.020606 0.019243,-0.011809 0.05851,-0.026451 0,0 -0.4825292,0.7113576 -0.4825292,0.7113576 v 0 C 8.0237912,2.10252 8.0429462,2.093746 8.0042412,2.110644 7.9380762,2.136257 7.8697758,2.130216 7.8042231,2.164208 7.7453731,2.196408 7.6878879,2.223589 7.6263295,2.229133 7.5633675,2.251946 7.5020572,2.291809 7.4372217,2.287925 7.3669157,2.297935 7.2969254,2.31333 7.2282907,2.345892 7.1580247,2.369363 7.086386,2.358451 7.015837,2.379603 6.944215,2.40214 6.8748674,2.443664 6.8032563,2.466038 6.7368033,2.487263 6.671425,2.526048 6.6034212,2.518631 6.5450212,2.521701 6.4863913,2.526391 6.4289191,2.548443 6.3658551,2.57424 6.3032348,2.606598 6.2380958,2.596884 6.1671548,2.5971189 6.0962194,2.5961729 6.0252791,2.5965581 c -0.068936,3.259e-4 -0.1378746,0.00104 -0.2068096,-1.567e-4 -0.070405,2.352e-4 -0.14081,8.296e-4 -0.2112147,4.74e-4 -0.070989,-0.00104 -0.1419807,3.258e-4 -0.2129711,7.82e-5 C 5.3217897,2.5965659 5.2492979,2.596003 5.1768034,2.5967162 5.1071274,2.5968729 5.0374561,2.5957681 4.9677799,2.596005 4.8999729,2.5962403 4.8321303,2.5956792 4.7643573,2.600295 4.6967043,2.607475 4.6292141,2.621406 4.5635947,2.655808 4.4948837,2.692621 4.4253357,2.719783 4.3561147,2.752673 4.2942057,2.784075 4.2308751,2.803922 4.16975,2.841553 4.100196,2.853775 4.030751,2.868964 3.9635283,2.907875 3.8872823,2.942126 3.8084356,2.946707 3.7316156,2.976099 3.6352176,2.999288 3.5384079,2.987346 3.4414924,2.993382 c 0,0 0.4903564,-0.6910532 0.4903564,-0.6910532 z"
       inkscape:connector-curvature="0"
       style="stroke-width:0.05628503" />
  </g>
</svg>
